<svg width="364" height="274" viewBox="0 0 364 274" fill="none" xmlns="http://www.w3.org/2000/svg">
<g clip-path="url(#clip0_2021_2494)">
<path d="M303.532 0.256711C312.784 51.6478 271.251 147.454 225.473 184.018C176.114 223.731 139.261 230.129 49.0691 213.77C53.5084 220.344 57.4499 225.405 60.5628 230.446C64.2495 236.079 68.1149 242.062 70.935 248.136C71.8282 249.889 71.4857 254.04 70.3642 255.052C69.2428 256.065 65.8255 254.713 64.499 253.18C52.0245 238.328 39.9833 223.256 27.5467 207.943C23.6052 202.882 22.7617 198.011 25.5522 194.381C36.7784 181.596 47.8259 168.461 59.4474 155.917C62.1618 153.209 66.7766 152.626 71.1102 150.419C75.3245 167.269 66.6308 169.487 62.962 176.214C59.2551 183.403 54.2218 189.058 48.7815 197.13C76.7695 207.616 101.223 210.624 124.437 208.521C209.723 201.315 262.581 144.359 290.091 49.9514C293.604 37.5603 295.753 24.097 298.871 11.4654C300.361 8.49773 301.635 5.64037 303.532 0.256711Z" fill="#FF0000"/>
</g>
<defs>
<clipPath id="clip0_2021_2494">
<rect width="340.593" height="133.253" fill="white" transform="translate(364 119) rotate(153.013)"/>
</clipPath>
</defs>
</svg>
